# xmcd
#
# Track frame offsets:
#	150
#	22364
#	43791
#	72994
#	102815
#	121399
#	165256
#	189232
#	209102
#	225022
#	249382
#	272361
#
# Disc length: 4007 seconds
#
# Revision: 0
# Processed by: cddbd v1.5.2PL0 Copyright (c) Steve Scherf et al.
# Submitted via: EasyCDDAExtractor 15.2.5.1
#
DISCID=9c0fa50c
DTITLE=Gérard Manset - Un oiseau s'est posé
DYEAR=2014
DGENRE=Chanson
TTITLE0=Entrez dans le rêve
TTITLE1=Cover me with flowers of mauve
TTITLE2=Comme un guerrier
TTITLE3=Matrice
TTITLE4=No man's land motel (il voyage en solitaire)
TTITLE5=Lumières
TTITLE6=Un oiseau s'est posé
TTITLE7=Celui qui marche devant
TTITLE8=Manteau jaune
TTITLE9=Toutes choses
TTITLE10=Deux voiles blanches
TTITLE11=Genre humain
EXTD=
EXTT0=
EXTT1=
EXTT2=
EXTT3=
EXTT4=
EXTT5=
EXTT6=
EXTT7=
EXTT8=
EXTT9=
EXTT10=
EXTT11=
PLAYORDER=
